<?xml version="1.0" encoding="UTF-8" standalone="no"?>
<!-- Created with Inkscape (http://www.inkscape.org/) -->
<svg
   xmlns:svg="http://www.w3.org/2000/svg"
   xmlns="http://www.w3.org/2000/svg"
   id="svg2"
   viewBox="0 0 1 1"
   height="85.000000"
   width="300.00000"
   y="0.0000000"
   x="0.0000000"
   version="1.0">
  <defs
     id="defs49" />
  <title
     id="title4">SVG drawing</title>
  <desc
     id="desc6">This was produced by version 4.1 of GNU libplot, a free library for exporting 2-D vector graphics.</desc>
  <g
     id="g2206"
     transform="matrix(1.539770,0.000000,0.000000,1.539770,-0.269884,-0.269885)">
    <g
       id="g1396">
      <path
         id="path16"
         style="font-style:normal;font-variant:normal;font-weight:normal;font-stretch:normal;fill:#000000;fill-opacity:1.0000000;stroke:#000000;stroke-width:0.0000000;stroke-linecap:butt;stroke-linejoin:miter;stroke-miterlimit:10.433000;stroke-dashoffset:0.0000000;stroke-opacity:1.0000000;letter-spacing:normal;text-anchor:start"
         d="M 0.11280262,0.53893492 L 0.12188160,0.53660698 C 0.12549000,0.54941067 0.13154268,0.56070123 0.14027249,0.57059496 C 0.14888598,0.58037237 0.15877977,0.58526104 0.16983761,0.58526104 C 0.17786907,0.58526104 0.18450371,0.58258386 0.18974165,0.57734602 C 0.19532876,0.57222456 0.19812229,0.56500788 0.19812229,0.55569610 C 0.19812229,0.54708273 0.19556154,0.53986611 0.19055645,0.53416264 C 0.18566769,0.52822639 0.17786907,0.52287209 0.16692763,0.51821620 C 0.15109755,0.51065041 0.13922490,0.50343379 0.13142629,0.49621711 C 0.12316204,0.48876771 0.11908808,0.47899037 0.11908808,0.46676862 C 0.11908808,0.45803879 0.12164882,0.44919264 0.12665398,0.44034642 C 0.13177546,0.43243146 0.13887573,0.42602958 0.14783839,0.42125730 C 0.15726662,0.41671780 0.16750965,0.41438985 0.17845103,0.41438985 C 0.19055645,0.41438985 0.20173061,0.41671780 0.21220643,0.42125730 C 0.21604754,0.43056908 0.21895752,0.44337278 0.22093631,0.45955200 L 0.21127523,0.46199634 C 0.20045024,0.43825133 0.18718091,0.42637875 0.17135076,0.42637875 C 0.16320290,0.42637875 0.15668459,0.42905594 0.15179589,0.43441017 C 0.14725637,0.44011364 0.14492841,0.44651553 0.14492841,0.45361575 C 0.14492841,0.46711779 0.15656820,0.47875752 0.17973140,0.48830215 C 0.19509591,0.49412201 0.20696856,0.50145502 0.21558198,0.51065041 C 0.22384622,0.51926378 0.22803657,0.52997231 0.22803657,0.54254323 C 0.22803657,0.55418296 0.22477742,0.56419315 0.21837550,0.57257374 C 0.21232282,0.58072154 0.20440775,0.58700697 0.19451396,0.59131369 C 0.18496934,0.59527117 0.17472631,0.59724994 0.16378493,0.59724994 C 0.15470588,0.59724994 0.14574321,0.59562041 0.13712979,0.59247766 C 0.12968029,0.59003332 0.12316204,0.58665780 0.11745854,0.58258386 C 0.11606171,0.57850999 0.11501419,0.57245735 0.11431577,0.56407676 C 0.11326818,0.55243703 0.11280262,0.54405637 0.11280262,0.53893492 z " />
      <path
         id="path18"
         style="font-style:normal;font-variant:normal;font-weight:normal;font-stretch:normal;fill:#000000;fill-opacity:1.0000000;stroke:#000000;stroke-width:0.0000000;stroke-linecap:butt;stroke-linejoin:miter;stroke-miterlimit:10.433000;stroke-dashoffset:0.0000000;stroke-opacity:1.0000000;letter-spacing:normal;text-anchor:start"
         d="M 0.30567395,0.41916214 L 0.30567395,0.42835753 L 0.29368498,0.42998706 C 0.28891268,0.43068547 0.28658472,0.43312981 0.28658472,0.43720374 C 0.28658472,0.43929884 0.28751591,0.44314000 0.28926185,0.44872701 L 0.32406484,0.54696634 C 0.32569445,0.54347442 0.33267833,0.52613122 0.34524925,0.49505313 C 0.35351350,0.47375246 0.35956624,0.45792240 0.36317457,0.44744665 C 0.36480412,0.44279076 0.36561892,0.43918245 0.36561892,0.43673812 C 0.36561892,0.43324620 0.36294179,0.43115103 0.35758746,0.43033630 L 0.34280490,0.42835753 L 0.34280490,0.41916214 L 0.41310929,0.41916214 L 0.41310929,0.42835753 C 0.40461220,0.43010352 0.39914154,0.43150027 0.39669719,0.43278064 C 0.39378721,0.43452656 0.39122647,0.43673812 0.38913129,0.43953169 C 0.38447537,0.44709748 0.38098344,0.45315012 0.37877187,0.45757323 C 0.37085679,0.47282127 0.36445494,0.48609059 0.35956624,0.49749747 C 0.35607430,0.50506333 0.35013802,0.51891461 0.34152453,0.53916770 C 0.33279472,0.55930441 0.32837158,0.56989662 0.32802241,0.57047857 C 0.30555756,0.62378853 0.29124063,0.65998807 0.28530435,0.67919358 C 0.28367473,0.68582825 0.27960084,0.68908738 0.27284975,0.68908738 C 0.26831022,0.68908738 0.26388715,0.68722500 0.25934763,0.68350030 C 0.25550645,0.68012478 0.25341127,0.67581812 0.25294571,0.67081300 C 0.25341127,0.66801949 0.25434247,0.66580793 0.25573923,0.66429479 C 0.25736884,0.66254880 0.26004597,0.65998807 0.26411993,0.65672893 C 0.27494492,0.64927954 0.28402398,0.63763981 0.29170620,0.62204254 C 0.29752610,0.60935523 0.30160006,0.59957789 0.30404441,0.59282683 C 0.30462643,0.59026611 0.30485921,0.58840372 0.30485921,0.58723982 C 0.30485921,0.58467902 0.30450997,0.58211830 0.30369523,0.57967396 C 0.29415055,0.54975985 0.27936806,0.50925365 0.25969680,0.45792240 C 0.25690321,0.44977459 0.25422608,0.44360556 0.25166534,0.43906606 C 0.25003579,0.43603977 0.24712581,0.43359544 0.24293552,0.43184944 C 0.23932713,0.43033630 0.23327445,0.42917233 0.22466103,0.42835753 L 0.22466103,0.41916214 L 0.30567395,0.41916214 z " />
      <path
         id="path20"
         style="font-style:normal;font-variant:normal;font-weight:normal;font-stretch:normal;fill:#000000;fill-opacity:1.0000000;stroke:#000000;stroke-width:0.0000000;stroke-linecap:butt;stroke-linejoin:miter;stroke-miterlimit:10.433000;stroke-dashoffset:0.0000000;stroke-opacity:1.0000000;letter-spacing:normal;text-anchor:start"
         d="M 0.43126733,0.55651090 L 0.43126733,0.46420789 C 0.43126733,0.45571085 0.43080177,0.44989105 0.42998696,0.44663192 C 0.42917215,0.44360556 0.42707704,0.44139401 0.42358511,0.44023003 C 0.42090791,0.43906606 0.41438966,0.43790209 0.40403024,0.43673812 L 0.40403024,0.42952150 C 0.42346872,0.42544756 0.44290712,0.42009333 0.46234560,0.41357505 L 0.46234560,0.44337278 C 0.47736094,0.43359544 0.48643999,0.42777557 0.48946630,0.42591319 C 0.50180451,0.41823094 0.51379347,0.41438985 0.52543327,0.41438985 C 0.53532712,0.41438985 0.54452257,0.41718336 0.55290321,0.42277044 C 0.56105106,0.42777557 0.56687096,0.43534136 0.57047929,0.44546794 C 0.58270104,0.43638894 0.59271129,0.42975428 0.60050997,0.42556402 C 0.61343013,0.41811455 0.62518632,0.41438985 0.63566213,0.41438985 C 0.65160867,0.41438985 0.66394681,0.41916214 0.67279308,0.42882309 C 0.68152289,0.43836772 0.68594603,0.45128781 0.68594603,0.46746703 L 0.68594603,0.55651090 C 0.68594603,0.56489149 0.68641159,0.57047857 0.68757564,0.57327215 C 0.68850677,0.57664761 0.69048555,0.57897555 0.69397749,0.58013952 C 0.69781860,0.58153634 0.70352211,0.58258386 0.71108801,0.58328227 L 0.71108801,0.59247766 L 0.62658308,0.59247766 L 0.62658308,0.58328227 C 0.63461454,0.58258386 0.64113286,0.58153634 0.64602155,0.58013952 C 0.64962988,0.57885916 0.65195784,0.57664761 0.65323821,0.57327215 C 0.65428580,0.57047857 0.65486776,0.56489149 0.65486776,0.55651090 L 0.65486776,0.47980510 C 0.65486776,0.45105502 0.64252962,0.43673812 0.61762042,0.43673812 C 0.60295432,0.43673812 0.58805537,0.44314000 0.57327281,0.45582731 C 0.57385483,0.46339309 0.57408762,0.46711779 0.57408762,0.46700140 L 0.57408762,0.55651090 C 0.57408762,0.56489149 0.57466957,0.57047857 0.57571716,0.57327215 C 0.57653197,0.57653122 0.57862714,0.57885916 0.58211908,0.58013952 C 0.58596019,0.58153634 0.59189648,0.58258386 0.59969516,0.58328227 L 0.59969516,0.59247766 L 0.51507384,0.59247766 L 0.51507384,0.58328227 C 0.52473492,0.58246747 0.53113677,0.58141995 0.53427954,0.58013952 C 0.53777147,0.57897555 0.54009943,0.57664761 0.54137980,0.57327215 C 0.54242739,0.57047857 0.54300935,0.56489149 0.54300935,0.55651090 L 0.54300935,0.47817557 C 0.54300935,0.45058940 0.53102038,0.43673812 0.50704238,0.43673812 C 0.49249267,0.43673812 0.47759372,0.44290715 0.46234560,0.45536168 L 0.46234560,0.55651090 C 0.46234560,0.56489149 0.46281116,0.57047857 0.46397514,0.57327215 C 0.46513912,0.57664761 0.46746708,0.57897555 0.47072624,0.58013952 C 0.47456735,0.58153634 0.48050370,0.58258386 0.48830232,0.58328227 L 0.48830232,0.59247766 L 0.40170228,0.59247766 L 0.40170228,0.58328227 C 0.41182892,0.58246747 0.41869634,0.58141995 0.42207189,0.58013952 C 0.42579667,0.57897555 0.42824102,0.57664761 0.42963779,0.57327215 C 0.43068537,0.57047857 0.43126733,0.56489149 0.43126733,0.55651090 z " />
      <path
         id="path22"
         style="font-style:normal;font-variant:normal;font-weight:normal;font-stretch:normal;fill:#000000;fill-opacity:1.0000000;stroke:#000000;stroke-width:0.0000000;stroke-linecap:butt;stroke-linejoin:miter;stroke-miterlimit:10.433000;stroke-dashoffset:0.0000000;stroke-opacity:1.0000000;letter-spacing:normal;text-anchor:start"
         transform="matrix(8.888889e-3,0.000000,0.000000,8.888889e-3,-0.861111,0.000000)"
         d="M 186.71875,46.625000 C 184.27003,47.083318 181.96003,48.095005 179.81250,49.718750 C 178.79111,50.465141 178.28126,51.119368 178.28125,51.656250 C 178.28125,52.088379 178.51043,52.425607 178.96875,52.687500 C 179.44016,53.014870 179.85209,53.187499 180.21875,53.187500 C 180.75563,53.187500 181.10596,52.888665 181.25000,52.312500 C 181.93093,49.811407 183.12030,48.562501 184.87500,48.562500 C 187.32372,48.562500 188.56250,49.970958 188.56250,52.812500 L 188.56250,54.343750 C 188.24823,54.540174 187.65861,54.862220 186.78125,55.281250 C 185.45868,55.857421 184.61666,56.244055 184.25000,56.375000 C 184.02739,56.466665 183.60236,56.608042 183.00000,56.843750 C 182.39764,57.066362 181.85444,57.303582 181.34375,57.500000 C 179.06526,58.390441 177.90625,59.896808 177.90625,62.031250 C 177.95863,62.960973 178.21400,63.792880 178.59375,64.500000 C 179.05206,65.272579 179.69317,65.926810 180.53125,66.437500 C 181.35622,66.948194 182.29111,67.187498 183.31250,67.187500 C 183.65296,67.187500 184.05182,67.051178 184.56250,66.750000 C 185.06010,66.501201 185.75569,66.081230 186.59375,65.531250 C 187.19611,65.138417 187.62620,64.875885 187.87500,64.718750 C 188.11071,64.561616 188.33989,64.425288 188.56250,64.281250 C 188.99463,66.009748 189.82653,66.964886 191.03125,67.187500 L 195.56250,65.000000 L 195.15625,64.000000 C 194.42295,64.392840 193.76874,64.593748 193.21875,64.593750 C 192.39378,64.593750 191.96874,63.779988 191.96875,62.156250 L 191.96875,52.062500 C 191.96875,51.028019 191.84256,50.172893 191.59375,49.531250 C 191.37114,48.811046 190.91784,48.198193 190.25000,47.687500 C 189.30718,46.980389 188.13299,46.625000 186.71875,46.625000 z M 188.56250,55.781250 L 188.56250,62.968750 C 187.94704,63.440162 187.27259,63.852103 186.50000,64.218750 C 185.72741,64.546122 185.10147,64.718749 184.65625,64.718750 C 183.89675,64.718750 183.21426,64.422892 182.62500,63.781250 C 182.00954,63.165797 181.68749,62.318709 181.68750,61.218750 C 181.68750,60.419975 181.88841,59.760695 182.28125,59.250000 C 182.67409,58.713117 183.24557,58.223495 184.03125,57.843750 C 185.09193,57.267579 186.59829,56.593117 188.56250,55.781250 z " />
      <path
         id="path26"
         style="font-style:normal;font-variant:normal;font-weight:normal;font-stretch:normal;fill:#000000;fill-opacity:1.0000000;stroke:#000000;stroke-width:0.0000000;stroke-linecap:butt;stroke-linejoin:miter;stroke-miterlimit:10.433000;stroke-dashoffset:0.0000000;stroke-opacity:1.0000000;letter-spacing:normal;text-anchor:start"
         d="M 0.93771474,0.41357505 L 0.93771474,0.44337278 C 0.94167231,0.44057927 0.95063497,0.43475934 0.96460272,0.42602958 C 0.97682447,0.41823094 0.98834788,0.41438985 0.99882369,0.41438985 C 1.0150030,0.41438985 1.0275740,0.41916214 1.0363038,0.42882309 C 1.0451501,0.43836772 1.0495732,0.45128781 1.0495732,0.46746703 L 1.0495732,0.55651090 C 1.0495732,0.56489149 1.0500388,0.57047857 1.0512028,0.57327215 C 1.0520176,0.57653122 1.0539963,0.57885916 1.0574882,0.58013952 C 1.0615622,0.58153634 1.0672657,0.58258386 1.0747151,0.58328227 L 1.0747151,0.59247766 L 0.99009381,0.59247766 L 0.99009381,0.58328227 C 0.99812528,0.58258386 1.0046436,0.58153634 1.0096487,0.58013952 C 1.0131406,0.57897555 1.0155850,0.57664761 1.0167489,0.57327215 C 1.0179129,0.57047857 1.0184949,0.56489149 1.0184949,0.55651090 L 1.0184949,0.47980510 C 1.0184949,0.45105502 1.0060403,0.43673812 0.98136400,0.43673812 C 0.96634866,0.43673812 0.95179888,0.44290715 0.93771474,0.45536168 L 0.93771474,0.55651090 C 0.93771474,0.56489149 0.93829676,0.57047857 0.93946074,0.57327215 C 0.94015909,0.57629843 0.94213788,0.57850999 0.94574621,0.58013952 C 0.94970378,0.58153634 0.95552367,0.58258386 0.96332229,0.58328227 L 0.96332229,0.59247766 L 0.87707142,0.59247766 L 0.87707142,0.58328227 C 0.88731446,0.58246747 0.89418194,0.58141995 0.89744110,0.58013952 C 0.90116582,0.57897555 0.90372656,0.57664761 0.90512332,0.57327215 C 0.90617091,0.57047857 0.90663654,0.56489149 0.90663654,0.55651090 L 0.90663654,0.46420789 C 0.90663654,0.45571085 0.90628730,0.44989105 0.90547256,0.44663192 C 0.90465775,0.44360556 0.90256258,0.44139401 0.89907064,0.44023003 C 0.89639351,0.43906606 0.88975881,0.43790209 0.87939938,0.43673812 L 0.87939938,0.42952150 C 0.89883786,0.42544756 0.91827633,0.42009333 0.93771474,0.41357505 z " />
      <path
         id="path28"
         style="font-style:normal;font-variant:normal;font-weight:normal;font-stretch:normal;fill:#000000;fill-opacity:1.0000000;stroke:#000000;stroke-width:0.0000000;stroke-linecap:butt;stroke-linejoin:miter;stroke-miterlimit:10.433000;stroke-dashoffset:0.0000000;stroke-opacity:1.0000000;letter-spacing:normal;text-anchor:start"
         d="M 1.1378028,0.43429378 L 1.1378028,0.53974972 C 1.1378028,0.56396037 1.1464163,0.57618204 1.1635267,0.57653122 C 1.1707435,0.57653122 1.1785421,0.57408688 1.1870392,0.56896543 L 1.1909967,0.57781158 L 1.1582889,0.59410720 C 1.1540985,0.59620236 1.1501410,0.59724994 1.1462999,0.59724994 C 1.1199939,0.59724994 1.1068410,0.58118711 1.1068410,0.54906150 L 1.1068410,0.43429378 L 1.0776251,0.43429378 L 1.0761119,0.43033630 L 1.0875189,0.41916214 L 1.1068410,0.41916214 L 1.1068410,0.39402030 L 1.1326813,0.36771456 L 1.1378028,0.36771456 L 1.1378028,0.41916214 L 1.1842456,0.41916214 C 1.1854096,0.42020972 1.1858752,0.42207210 1.1858752,0.42474922 C 1.1858752,0.42824114 1.1844784,0.43138388 1.1814521,0.43429378 L 1.1378028,0.43429378 z " />
      <path
         id="path30"
         style="font-style:normal;font-variant:normal;font-weight:normal;font-stretch:normal;fill:#000000;fill-opacity:1.0000000;stroke:#000000;stroke-width:0.0000000;stroke-linecap:butt;stroke-linejoin:miter;stroke-miterlimit:10.433000;stroke-dashoffset:0.0000000;stroke-opacity:1.0000000;letter-spacing:normal;text-anchor:start"
         transform="matrix(8.888889e-3,0.000000,0.000000,8.888889e-3,-0.861111,0.000000)"
         d="M 240.90625,46.625000 C 239.12536,46.625000 237.53417,47.111651 236.09375,48.093750 C 234.57475,49.141326 233.36932,50.511383 232.53125,52.187500 C 231.69318,53.889817 231.28125,55.728352 231.28125,57.718750 C 231.32054,59.538913 231.69406,61.130123 232.37500,62.531250 C 233.12140,63.945479 234.18753,65.073247 235.56250,65.937500 C 236.97673,66.775558 238.58608,67.187498 240.40625,67.187500 C 240.91694,67.187500 241.53485,67.056238 242.28125,66.781250 C 242.98837,66.545544 243.80212,66.100273 244.71875,65.406250 C 245.60920,64.751515 246.41491,63.886263 247.18750,62.812500 L 246.56250,62.156250 C 244.93875,63.596666 243.40412,64.312504 241.93750,64.312500 C 240.82445,64.312500 239.68360,64.026763 238.53125,63.437500 C 237.37892,62.835148 236.43896,61.856784 235.71875,60.468750 C 234.98544,59.146187 234.59374,57.402587 234.59375,55.281250 C 237.68411,55.137208 239.48425,55.039283 239.96875,55.000000 C 241.91987,54.908335 243.40600,54.805355 244.37500,54.687500 C 245.92019,54.569647 246.58452,54.531250 246.37500,54.531250 C 246.83332,54.439593 247.09584,54.308329 247.18750,54.125000 C 247.27916,53.941678 247.31250,53.529735 247.31250,52.875000 C 247.31250,51.840519 247.00862,50.849067 246.40625,49.906250 C 245.84318,48.937246 245.08896,48.159797 244.09375,47.531250 C 243.03308,46.928891 241.96693,46.625000 240.90625,46.625000 z M 239.71875,48.125000 C 240.84490,48.125000 241.76162,48.555100 242.46875,49.406250 C 243.16276,50.231222 243.50000,51.124740 243.50000,52.093750 C 243.50000,52.683008 243.46667,53.079763 243.37500,53.250000 C 243.23095,53.446416 243.00178,53.531251 242.68750,53.531250 L 234.87500,53.687500 C 235.03213,52.535166 235.33604,51.553837 235.78125,50.781250 C 236.23956,49.995568 236.83426,49.372601 237.59375,48.875000 C 238.28777,48.390502 238.99854,48.125001 239.71875,48.125000 z " />
      <path
         id="path34"
         style="font-style:normal;font-variant:normal;font-weight:normal;font-stretch:normal;fill:#000000;fill-opacity:1.0000000;stroke:#000000;stroke-width:0.0000000;stroke-linecap:butt;stroke-linejoin:miter;stroke-miterlimit:10.433000;stroke-dashoffset:0.0000000;stroke-opacity:1.0000000;letter-spacing:normal;text-anchor:start"
         d="M 1.4903722,0.54906150 L 1.4956101,0.55418296 C 1.4876950,0.56628824 1.4778012,0.57653122 1.4656958,0.58526104 C 1.4540560,0.59329246 1.4426490,0.59724994 1.4312420,0.59724994 C 1.4151791,0.59724994 1.4007457,0.59340885 1.3880584,0.58572661 C 1.3754874,0.57781158 1.3658264,0.56745228 1.3588425,0.55453213 C 1.3520914,0.54149565 1.3485995,0.52764437 1.3485995,0.51297835 C 1.3485995,0.49866144 1.3517422,0.48481023 1.3581441,0.47154090 C 1.3652444,0.45827164 1.3740906,0.44721387 1.3847992,0.43836772 C 1.3952751,0.42998706 1.4064492,0.42370164 1.4185546,0.41962770 C 1.4315912,0.41613585 1.4421834,0.41438985 1.4499821,0.41438985 C 1.4560348,0.41438985 1.4622039,0.41532105 1.4684893,0.41718336 C 1.4760552,0.41927853 1.4816423,0.42195571 1.4852507,0.42521478 C 1.4879278,0.42707716 1.4892082,0.43010352 1.4892082,0.43394461 C 1.4892082,0.43860050 1.4876950,0.44267437 1.4846686,0.44593351 C 1.4815260,0.44965820 1.4786160,0.45152059 1.4759388,0.45152059 C 1.4743092,0.45152059 1.4723305,0.45058940 1.4700025,0.44872701 C 1.4574316,0.43720374 1.4435802,0.43161666 1.4284485,0.43161666 C 1.4216974,0.43161666 1.4143643,0.43382822 1.4065656,0.43836772 C 1.3989998,0.44290715 1.3929471,0.45000744 1.3880584,0.45955200 C 1.3830533,0.46851461 1.3804925,0.48038712 1.3804925,0.49516953 C 1.3804925,0.51344392 1.3841009,0.52822639 1.3913175,0.53974972 C 1.3984178,0.55127306 1.4065656,0.55942087 1.4161103,0.56419315 C 1.4261205,0.56896543 1.4349668,0.57140976 1.4427654,0.57140976 C 1.4513789,0.57140976 1.4589447,0.56989662 1.4656958,0.56698665 C 1.4719813,0.56396037 1.4802455,0.55802405 1.4903722,0.54906150 z " />
      <polygon
         id="polygon36"
         style="font-style:normal;font-variant:normal;font-weight:normal;font-stretch:normal;fill:#000000;fill-opacity:1.0000000;stroke:#000000;stroke-width:0.0000000;stroke-linecap:butt;stroke-linejoin:miter;stroke-miterlimit:10.433000;stroke-dashoffset:0.0000000;stroke-opacity:1.0000000;letter-spacing:normal;text-anchor:start"
         transform="matrix(1.163979e-2,0.000000,0.000000,-1.163973e-2,-2.964410,5.399684)"
         points="387.90000,415.81000 387.07000,415.81000 387.07000,413.16000 386.43000,413.16000 386.43000,415.81000 385.60000,415.81000 385.60000,416.35000 387.90000,416.35000 387.90000,415.81000 " />
      <polygon
         id="polygon38"
         style="font-style:normal;font-variant:normal;font-weight:normal;font-stretch:normal;fill:#000000;fill-opacity:1.0000000;stroke:#000000;stroke-width:0.0000000;stroke-linecap:butt;stroke-linejoin:miter;stroke-miterlimit:10.433000;stroke-dashoffset:0.0000000;stroke-opacity:1.0000000;letter-spacing:normal;text-anchor:start"
         transform="matrix(1.163979e-2,0.000000,0.000000,-1.163973e-2,-2.964410,5.399684)"
         points="390.13000,416.35000 391.18000,416.35000 391.18000,413.16000 390.55000,413.16000 390.56000,415.74000 389.94000,413.16000 389.37000,413.16000 388.75000,415.74000 388.77000,413.16000 388.13000,413.16000 388.13000,416.35000 389.18000,416.35000 389.66000,414.07000 390.13000,416.35000 " />
    </g>
    <g
       id="g2200">
      <path
         id="path14"
         style="font-style:normal;font-variant:normal;font-weight:normal;font-stretch:normal;fill:#fda10c;fill-opacity:1.0000000;stroke:#fda10c;stroke-width:0.0000000;stroke-linecap:butt;stroke-linejoin:miter;stroke-miterlimit:10.433000;stroke-dashoffset:0.0000000;stroke-opacity:1.0000000;letter-spacing:normal;text-anchor:start"
         transform="matrix(8.888889e-3,0.000000,0.000000,8.888889e-3,-0.861111,0.000000)"
         d="M 62.195966,24.964517 C 60.157313,25.128358 58.378281,25.424581 56.454432,25.899195 C 56.280707,25.942054 55.703900,26.110983 55.531250,26.156250 C 54.977762,26.301371 54.348735,26.484007 53.806856,26.653428 C 47.323769,28.896583 42.731174,34.546864 42.718750,41.218750 C 42.705659,46.810180 46.336802,52.720640 51.718750,55.156250 C 51.750439,55.170523 51.780851,55.173262 51.812500,55.187500 L 52.562500,54.843750 L 53.312500,54.531250 L 54.062500,54.250000 L 54.843750,53.968750 L 55.656250,53.687500 L 56.468750,53.468750 L 57.281250,53.218750 L 58.125000,53.031250 L 59.750000,52.593750 L 60.562500,52.406250 L 61.375000,52.218750 L 62.187500,52.000000 L 62.968750,51.812500 L 63.718750,51.593750 L 64.468750,51.375000 C 64.438890,51.361527 64.404876,51.357245 64.375000,51.343750 C 58.246639,48.580772 51.000000,45.407106 51.000000,37.406250 C 51.000006,31.333585 56.227628,26.046694 62.195966,24.964517 z " />
      <path
         id="path40"
         style="font-style:normal;font-variant:normal;font-weight:normal;font-stretch:normal;fill:#000000;fill-opacity:1.0000000;stroke:#000000;stroke-width:0.0000000;stroke-linecap:butt;stroke-linejoin:miter;stroke-miterlimit:10.433000;stroke-dashoffset:0.0000000;stroke-opacity:1.0000000;letter-spacing:normal;text-anchor:start"
         d="M -0.24430626,0.77743291 L -0.20752455,0.77044908 C -0.13826775,0.75706336 -0.085539504,0.70130913 -0.085423113,0.63438067 C -0.085306721,0.58467902 -0.11743251,0.53206748 -0.16527206,0.51041763 C -0.20868853,0.49086287 -0.24803098,0.47491643 -0.28900304,0.45640926 C -0.34347729,0.43184944 -0.40784539,0.40356493 -0.40784539,0.33244621 C -0.40784539,0.27075566 -0.35290551,0.22035560 -0.28551117,0.22035560 L -0.26455954,0.22140319 C -0.10614189,0.23024941 0.021430206,0.35363050 0.021430206,0.49994187 C 0.021430206,0.63985136 -0.092988945,0.75997332 -0.24430626,0.77743291 z " />
      <path
         id="path42"
         style="font-style:normal;font-variant:normal;font-weight:normal;font-stretch:normal;fill:#fade0a;fill-opacity:1.0000000;stroke:#fade0a;stroke-width:0.0000000;stroke-linecap:butt;stroke-linejoin:miter;stroke-miterlimit:10.433000;stroke-dashoffset:0.0000000;stroke-opacity:1.0000000;letter-spacing:normal;text-anchor:start"
         d="M -0.28132082,0.77964447 L -0.27503529,0.77952807 L -0.26886622,0.77906245 L -0.26269715,0.77836410 L -0.25676086,0.77743291 L -0.25082457,0.77615255 L -0.24500468,0.77463934 L -0.23930117,0.77289341 L -0.23371406,0.77091464 L -0.22835972,0.76870308 L -0.22312185,0.76625875 L -0.21800037,0.76358163 L -0.21299521,0.76067173 L -0.20822290,0.75752899 L -0.20356698,0.75426985 L -0.19914385,0.75077793 L -0.19483717,0.74705323 L -0.19076321,0.74321208 L -0.18692210,0.73925460 L -0.18331377,0.73494788 L -0.17982183,0.73064123 L -0.17667907,0.72610173 L -0.17376915,0.72144584 L -0.17097556,0.71667356 L -0.16853121,0.71166843 L -0.16631964,0.70666336 L -0.16445725,0.70142552 L -0.16282771,0.69618761 L -0.16143094,0.69071692 L -0.16038336,0.68524630 L -0.15956855,0.67965921 L -0.15910299,0.67395574 L -0.15887020,0.66825227 C -0.15887020,0.59713355 -0.22335463,0.56896543 -0.27782888,0.54428922 C -0.31880094,0.52578205 -0.35802706,0.50983561 -0.40144347,0.49028085 C -0.44928302,0.46863100 -0.48140888,0.41601939 -0.48129248,0.36631781 C -0.48117609,0.30381246 -0.43519888,0.25096813 -0.37269316,0.23350854 C -0.35511708,0.22861980 -0.33626063,0.22524428 -0.31821898,0.22256716 C -0.47081667,0.23781519 -0.58884415,0.35805361 -0.58884415,0.49994187 C -0.58884415,0.65405182 -0.45172737,0.77964447 -0.28364878,0.77964447 C -0.28364878,0.77964447 -0.28132082,0.77964447 -0.28132082,0.77964447 z " />
      <path
         id="path46"
         style="font-style:normal;font-variant:normal;font-weight:normal;font-stretch:normal;fill:#547070;fill-opacity:1.0000000;stroke:#547070;stroke-width:0.0000000;stroke-linecap:butt;stroke-linejoin:miter;stroke-miterlimit:10.433000;stroke-dashoffset:0.0000000;stroke-opacity:1.0000000;letter-spacing:normal;text-anchor:start"
         d="M -0.24197830,0.77696735 L -0.24640144,0.77754930 L -0.25070818,0.77801486 L -0.25513125,0.77836410 L -0.25955438,0.77871327 L -0.26397752,0.77906245 L -0.26840065,0.77929529 L -0.27294018,0.77941168 L -0.27736332,0.77952807 C -0.21183123,0.77766569 -0.15887020,0.72877884 -0.15887020,0.66825227 C -0.15887020,0.59713355 -0.22335463,0.56896543 -0.27782888,0.54428922 C -0.27817805,0.54417283 -0.27841084,0.54393998 -0.27876008,0.54382359 C -0.23778802,0.52915758 -0.20496375,0.53078711 -0.16480649,0.51076680 C -0.11719973,0.53253311 -0.085306721,0.58491187 -0.085423113,0.63438067 C -0.085539504,0.70130913 -0.13826775,0.75706336 -0.20752455,0.77044908 L -0.24197830,0.77696735 z " />
    </g>
  </g>
</svg>
